<svg xmlns="http://www.w3.org/2000/svg" version="1.1" xmlns:xlink="http://www.w3.org/1999/xlink" width="512" height="512" x="0" y="0" viewBox="0 0 469.333 469" style="enable-background:new 0 0 512 512" xml:space="preserve" class=""><g><path d="M373.332 116.7h21.336v235.413h-21.336zM74.668 116.7H96v235.413H74.668zm0 0" fill="#811fba" opacity="1" data-original="#000000" class=""></path><path d="M419.2 362.832H50.132C22.445 362.832 0 340.387 0 312.699V50.301C0 22.613 22.445.168 50.133.168h369.066c27.688 0 50.133 22.445 50.133 50.133v262.398c0 27.688-22.445 50.133-50.133 50.133zM50.132 21.5c-15.906 0-28.801 12.895-28.801 28.8v262.4c0 15.905 12.895 28.8 28.8 28.8H419.2c15.906 0 28.801-12.895 28.801-28.8V50.3c0-15.905-12.895-28.8-28.8-28.8zm0 0" fill="#811fba" opacity="1" data-original="#000000" class=""></path><path d="M234.668 263.898 3.602 58.301l14.132-16 216.934 193.066L451.602 42.301l14.132 16zm0 0" fill="#811fba" opacity="1" data-original="#000000" class=""></path><path d="M234.668 167.898 65.066 18.832l14-16L234.668 139.5 390.133 2.832l14.133 16zm0 0" fill="#811fba" opacity="1" data-original="#000000" class=""></path></g></svg>